<mxfile host="Electron" modified="2023-11-08T08:42:01.704Z" agent="Mozilla/5.0 (Windows NT 10.0; Win64; x64) AppleWebKit/537.36 (KHTML, like Gecko) draw.io/22.0.3 Chrome/114.0.5735.289 Electron/25.8.4 Safari/537.36" etag="A6RAYFbNYtscn027yM5t" version="22.0.3" type="device" pages="3">
  <diagram name="Use Case" id="TEfxO8_WFks7vH1Z_05f">
    <mxGraphModel dx="1151" dy="1773" grid="1" gridSize="10" guides="1" tooltips="1" connect="1" arrows="1" fold="1" page="1" pageScale="1" pageWidth="850" pageHeight="1100" math="0" shadow="0">
      <root>
        <mxCell id="0" />
        <mxCell id="1" parent="0" />
        <mxCell id="fiiKQI696LGkyhBKNYqE-8" value="" style="edgeStyle=orthogonalEdgeStyle;rounded=0;orthogonalLoop=1;jettySize=auto;html=1;" edge="1" parent="1" source="fiiKQI696LGkyhBKNYqE-1" target="fiiKQI696LGkyhBKNYqE-5">
          <mxGeometry relative="1" as="geometry" />
        </mxCell>
        <mxCell id="fiiKQI696LGkyhBKNYqE-9" value="" style="edgeStyle=orthogonalEdgeStyle;rounded=0;orthogonalLoop=1;jettySize=auto;html=1;endArrow=none;endFill=0;" edge="1" parent="1" source="fiiKQI696LGkyhBKNYqE-1" target="fiiKQI696LGkyhBKNYqE-3">
          <mxGeometry relative="1" as="geometry" />
        </mxCell>
        <mxCell id="N1Z85GW_m6jJml6EbSMK-8" style="edgeStyle=orthogonalEdgeStyle;rounded=0;orthogonalLoop=1;jettySize=auto;html=1;entryX=0;entryY=0.5;entryDx=0;entryDy=0;exitX=0.5;exitY=0;exitDx=0;exitDy=0;" edge="1" parent="1" source="fiiKQI696LGkyhBKNYqE-1" target="N1Z85GW_m6jJml6EbSMK-1">
          <mxGeometry relative="1" as="geometry" />
        </mxCell>
        <mxCell id="N1Z85GW_m6jJml6EbSMK-9" style="edgeStyle=orthogonalEdgeStyle;rounded=0;orthogonalLoop=1;jettySize=auto;html=1;entryX=0;entryY=0.5;entryDx=0;entryDy=0;exitX=0.5;exitY=0;exitDx=0;exitDy=0;" edge="1" parent="1" source="fiiKQI696LGkyhBKNYqE-1" target="N1Z85GW_m6jJml6EbSMK-6">
          <mxGeometry relative="1" as="geometry" />
        </mxCell>
        <mxCell id="fiiKQI696LGkyhBKNYqE-1" value="OrderController" style="html=1;whiteSpace=wrap;" vertex="1" parent="1">
          <mxGeometry x="220" y="-20" width="160" height="50" as="geometry" />
        </mxCell>
        <mxCell id="fiiKQI696LGkyhBKNYqE-3" value="Auth Manager" style="html=1;whiteSpace=wrap;" vertex="1" parent="1">
          <mxGeometry x="245" y="90" width="110" height="50" as="geometry" />
        </mxCell>
        <mxCell id="fiiKQI696LGkyhBKNYqE-15" value="" style="edgeStyle=orthogonalEdgeStyle;rounded=0;orthogonalLoop=1;jettySize=auto;html=1;" edge="1" parent="1" source="fiiKQI696LGkyhBKNYqE-5" target="fiiKQI696LGkyhBKNYqE-12">
          <mxGeometry relative="1" as="geometry" />
        </mxCell>
        <mxCell id="fiiKQI696LGkyhBKNYqE-5" value="OrderService" style="html=1;whiteSpace=wrap;" vertex="1" parent="1">
          <mxGeometry x="480" y="-20" width="160" height="50" as="geometry" />
        </mxCell>
        <mxCell id="fiiKQI696LGkyhBKNYqE-12" value="&amp;lt;&amp;lt; entity &amp;gt;&amp;gt;&lt;br&gt;Order" style="html=1;whiteSpace=wrap;" vertex="1" parent="1">
          <mxGeometry x="720" y="-20" width="130" height="50" as="geometry" />
        </mxCell>
        <mxCell id="fiiKQI696LGkyhBKNYqE-35" style="edgeStyle=orthogonalEdgeStyle;rounded=0;orthogonalLoop=1;jettySize=auto;html=1;" edge="1" parent="1" source="fiiKQI696LGkyhBKNYqE-33" target="fiiKQI696LGkyhBKNYqE-1">
          <mxGeometry relative="1" as="geometry" />
        </mxCell>
        <mxCell id="fiiKQI696LGkyhBKNYqE-33" value="Router" style="html=1;whiteSpace=wrap;" vertex="1" parent="1">
          <mxGeometry x="50" y="-20" width="110" height="50" as="geometry" />
        </mxCell>
        <mxCell id="N1Z85GW_m6jJml6EbSMK-4" value="" style="edgeStyle=orthogonalEdgeStyle;rounded=0;orthogonalLoop=1;jettySize=auto;html=1;" edge="1" parent="1" source="N1Z85GW_m6jJml6EbSMK-1" target="N1Z85GW_m6jJml6EbSMK-3">
          <mxGeometry relative="1" as="geometry" />
        </mxCell>
        <mxCell id="N1Z85GW_m6jJml6EbSMK-1" value="OrderStatusService" style="html=1;whiteSpace=wrap;" vertex="1" parent="1">
          <mxGeometry x="480" y="-160" width="160" height="50" as="geometry" />
        </mxCell>
        <mxCell id="N1Z85GW_m6jJml6EbSMK-10" style="edgeStyle=orthogonalEdgeStyle;rounded=0;orthogonalLoop=1;jettySize=auto;html=1;entryX=1;entryY=0.5;entryDx=0;entryDy=0;exitX=1;exitY=0.5;exitDx=0;exitDy=0;" edge="1" parent="1" source="N1Z85GW_m6jJml6EbSMK-3" target="fiiKQI696LGkyhBKNYqE-12">
          <mxGeometry relative="1" as="geometry" />
        </mxCell>
        <mxCell id="N1Z85GW_m6jJml6EbSMK-3" value="&amp;lt;&amp;lt; entity &amp;gt;&amp;gt;&lt;br&gt;OrderStatus" style="html=1;whiteSpace=wrap;" vertex="1" parent="1">
          <mxGeometry x="720" y="-160" width="130" height="50" as="geometry" />
        </mxCell>
        <mxCell id="N1Z85GW_m6jJml6EbSMK-11" style="edgeStyle=orthogonalEdgeStyle;rounded=0;orthogonalLoop=1;jettySize=auto;html=1;entryX=1;entryY=0.5;entryDx=0;entryDy=0;exitX=1;exitY=0.5;exitDx=0;exitDy=0;" edge="1" parent="1" source="N1Z85GW_m6jJml6EbSMK-5" target="fiiKQI696LGkyhBKNYqE-12">
          <mxGeometry relative="1" as="geometry" />
        </mxCell>
        <mxCell id="N1Z85GW_m6jJml6EbSMK-5" value="&amp;lt;&amp;lt; entity &amp;gt;&amp;gt;&lt;br&gt;OrderConfirmation" style="html=1;whiteSpace=wrap;" vertex="1" parent="1">
          <mxGeometry x="720" y="-250" width="130" height="50" as="geometry" />
        </mxCell>
        <mxCell id="N1Z85GW_m6jJml6EbSMK-7" style="edgeStyle=orthogonalEdgeStyle;rounded=0;orthogonalLoop=1;jettySize=auto;html=1;" edge="1" parent="1" source="N1Z85GW_m6jJml6EbSMK-6" target="N1Z85GW_m6jJml6EbSMK-5">
          <mxGeometry relative="1" as="geometry" />
        </mxCell>
        <mxCell id="N1Z85GW_m6jJml6EbSMK-6" value="OrderConfirmationService" style="html=1;whiteSpace=wrap;" vertex="1" parent="1">
          <mxGeometry x="480" y="-250" width="160" height="50" as="geometry" />
        </mxCell>
      </root>
    </mxGraphModel>
  </diagram>
  <diagram id="AtcV4aKFvXnSEoEWO6WB" name="Logical">
    <mxGraphModel dx="2590" dy="2615" grid="1" gridSize="10" guides="1" tooltips="1" connect="1" arrows="1" fold="1" page="1" pageScale="1" pageWidth="850" pageHeight="1100" math="0" shadow="0">
      <root>
        <mxCell id="0" />
        <mxCell id="1" parent="0" />
        <mxCell id="vGsgT0Gbf7s0fRSy6tzb-1" value="" style="edgeStyle=orthogonalEdgeStyle;rounded=0;orthogonalLoop=1;jettySize=auto;html=1;" edge="1" parent="1" source="vGsgT0Gbf7s0fRSy6tzb-5" target="vGsgT0Gbf7s0fRSy6tzb-8">
          <mxGeometry relative="1" as="geometry" />
        </mxCell>
        <mxCell id="vGsgT0Gbf7s0fRSy6tzb-2" value="" style="edgeStyle=orthogonalEdgeStyle;rounded=0;orthogonalLoop=1;jettySize=auto;html=1;endArrow=none;endFill=0;" edge="1" parent="1" source="vGsgT0Gbf7s0fRSy6tzb-5" target="vGsgT0Gbf7s0fRSy6tzb-6">
          <mxGeometry relative="1" as="geometry" />
        </mxCell>
        <mxCell id="vGsgT0Gbf7s0fRSy6tzb-3" style="edgeStyle=orthogonalEdgeStyle;rounded=0;orthogonalLoop=1;jettySize=auto;html=1;entryX=0;entryY=0.5;entryDx=0;entryDy=0;exitX=0.5;exitY=0;exitDx=0;exitDy=0;" edge="1" parent="1" source="vGsgT0Gbf7s0fRSy6tzb-5" target="vGsgT0Gbf7s0fRSy6tzb-13">
          <mxGeometry relative="1" as="geometry" />
        </mxCell>
        <mxCell id="vGsgT0Gbf7s0fRSy6tzb-4" style="edgeStyle=orthogonalEdgeStyle;rounded=0;orthogonalLoop=1;jettySize=auto;html=1;entryX=0;entryY=0.5;entryDx=0;entryDy=0;exitX=0.5;exitY=0;exitDx=0;exitDy=0;" edge="1" parent="1" source="vGsgT0Gbf7s0fRSy6tzb-5" target="vGsgT0Gbf7s0fRSy6tzb-19">
          <mxGeometry relative="1" as="geometry" />
        </mxCell>
        <mxCell id="vGsgT0Gbf7s0fRSy6tzb-5" value="OrderController" style="html=1;whiteSpace=wrap;" vertex="1" parent="1">
          <mxGeometry x="220" y="-20" width="160" height="50" as="geometry" />
        </mxCell>
        <mxCell id="vGsgT0Gbf7s0fRSy6tzb-21" style="edgeStyle=orthogonalEdgeStyle;rounded=0;orthogonalLoop=1;jettySize=auto;html=1;" edge="1" parent="1" source="vGsgT0Gbf7s0fRSy6tzb-6" target="vGsgT0Gbf7s0fRSy6tzb-20">
          <mxGeometry relative="1" as="geometry" />
        </mxCell>
        <mxCell id="vGsgT0Gbf7s0fRSy6tzb-6" value="Auth Manager" style="html=1;whiteSpace=wrap;" vertex="1" parent="1">
          <mxGeometry x="245" y="70" width="110" height="50" as="geometry" />
        </mxCell>
        <mxCell id="vGsgT0Gbf7s0fRSy6tzb-7" value="" style="edgeStyle=orthogonalEdgeStyle;rounded=0;orthogonalLoop=1;jettySize=auto;html=1;" edge="1" parent="1" source="vGsgT0Gbf7s0fRSy6tzb-8" target="vGsgT0Gbf7s0fRSy6tzb-9">
          <mxGeometry relative="1" as="geometry" />
        </mxCell>
        <mxCell id="vGsgT0Gbf7s0fRSy6tzb-26" style="edgeStyle=orthogonalEdgeStyle;rounded=0;orthogonalLoop=1;jettySize=auto;html=1;exitX=0;exitY=0.25;exitDx=0;exitDy=0;entryX=1;entryY=0.5;entryDx=0;entryDy=0;" edge="1" parent="1" source="vGsgT0Gbf7s0fRSy6tzb-8" target="vGsgT0Gbf7s0fRSy6tzb-22">
          <mxGeometry relative="1" as="geometry" />
        </mxCell>
        <mxCell id="f30gwW_MKu_hwVnbn6P4-2" style="edgeStyle=orthogonalEdgeStyle;rounded=0;orthogonalLoop=1;jettySize=auto;html=1;entryX=0;entryY=0.5;entryDx=0;entryDy=0;" edge="1" parent="1" source="vGsgT0Gbf7s0fRSy6tzb-8" target="f30gwW_MKu_hwVnbn6P4-1">
          <mxGeometry relative="1" as="geometry" />
        </mxCell>
        <mxCell id="f30gwW_MKu_hwVnbn6P4-8" style="edgeStyle=orthogonalEdgeStyle;rounded=0;orthogonalLoop=1;jettySize=auto;html=1;entryX=0;entryY=0.5;entryDx=0;entryDy=0;" edge="1" parent="1" source="vGsgT0Gbf7s0fRSy6tzb-8" target="f30gwW_MKu_hwVnbn6P4-7">
          <mxGeometry relative="1" as="geometry" />
        </mxCell>
        <mxCell id="vGsgT0Gbf7s0fRSy6tzb-8" value="OrderService" style="html=1;whiteSpace=wrap;" vertex="1" parent="1">
          <mxGeometry x="480" y="-20" width="160" height="50" as="geometry" />
        </mxCell>
        <mxCell id="vGsgT0Gbf7s0fRSy6tzb-30" style="edgeStyle=orthogonalEdgeStyle;rounded=0;orthogonalLoop=1;jettySize=auto;html=1;exitX=0;exitY=0.25;exitDx=0;exitDy=0;entryX=0;entryY=0.5;entryDx=0;entryDy=0;" edge="1" parent="1" source="vGsgT0Gbf7s0fRSy6tzb-9" target="vGsgT0Gbf7s0fRSy6tzb-27">
          <mxGeometry relative="1" as="geometry" />
        </mxCell>
        <mxCell id="vGsgT0Gbf7s0fRSy6tzb-9" value="&amp;lt;&amp;lt; entity &amp;gt;&amp;gt;&lt;br&gt;Order" style="html=1;whiteSpace=wrap;" vertex="1" parent="1">
          <mxGeometry x="740" y="-20" width="130" height="50" as="geometry" />
        </mxCell>
        <mxCell id="vGsgT0Gbf7s0fRSy6tzb-10" style="edgeStyle=orthogonalEdgeStyle;rounded=0;orthogonalLoop=1;jettySize=auto;html=1;" edge="1" parent="1" source="vGsgT0Gbf7s0fRSy6tzb-11" target="vGsgT0Gbf7s0fRSy6tzb-5">
          <mxGeometry relative="1" as="geometry" />
        </mxCell>
        <mxCell id="vGsgT0Gbf7s0fRSy6tzb-11" value="Router" style="html=1;whiteSpace=wrap;" vertex="1" parent="1">
          <mxGeometry x="60" y="-20" width="110" height="50" as="geometry" />
        </mxCell>
        <mxCell id="vGsgT0Gbf7s0fRSy6tzb-12" value="" style="edgeStyle=orthogonalEdgeStyle;rounded=0;orthogonalLoop=1;jettySize=auto;html=1;" edge="1" parent="1" source="vGsgT0Gbf7s0fRSy6tzb-13" target="vGsgT0Gbf7s0fRSy6tzb-15">
          <mxGeometry relative="1" as="geometry" />
        </mxCell>
        <mxCell id="vGsgT0Gbf7s0fRSy6tzb-24" style="edgeStyle=orthogonalEdgeStyle;rounded=0;orthogonalLoop=1;jettySize=auto;html=1;entryX=1;entryY=0.5;entryDx=0;entryDy=0;exitX=0;exitY=0.25;exitDx=0;exitDy=0;" edge="1" parent="1" source="vGsgT0Gbf7s0fRSy6tzb-13" target="vGsgT0Gbf7s0fRSy6tzb-22">
          <mxGeometry relative="1" as="geometry" />
        </mxCell>
        <mxCell id="vGsgT0Gbf7s0fRSy6tzb-13" value="OrderStatusService" style="html=1;whiteSpace=wrap;" vertex="1" parent="1">
          <mxGeometry x="480" y="-110" width="160" height="50" as="geometry" />
        </mxCell>
        <mxCell id="vGsgT0Gbf7s0fRSy6tzb-14" style="edgeStyle=orthogonalEdgeStyle;rounded=0;orthogonalLoop=1;jettySize=auto;html=1;entryX=1;entryY=0.5;entryDx=0;entryDy=0;exitX=1;exitY=0.5;exitDx=0;exitDy=0;" edge="1" parent="1" source="vGsgT0Gbf7s0fRSy6tzb-15" target="vGsgT0Gbf7s0fRSy6tzb-9">
          <mxGeometry relative="1" as="geometry" />
        </mxCell>
        <mxCell id="vGsgT0Gbf7s0fRSy6tzb-29" style="edgeStyle=orthogonalEdgeStyle;rounded=0;orthogonalLoop=1;jettySize=auto;html=1;exitX=0;exitY=0.25;exitDx=0;exitDy=0;entryX=0;entryY=0.5;entryDx=0;entryDy=0;" edge="1" parent="1" source="vGsgT0Gbf7s0fRSy6tzb-15" target="vGsgT0Gbf7s0fRSy6tzb-27">
          <mxGeometry relative="1" as="geometry" />
        </mxCell>
        <mxCell id="vGsgT0Gbf7s0fRSy6tzb-15" value="&amp;lt;&amp;lt; entity &amp;gt;&amp;gt;&lt;br&gt;OrderStatus" style="html=1;whiteSpace=wrap;" vertex="1" parent="1">
          <mxGeometry x="740" y="-110" width="130" height="50" as="geometry" />
        </mxCell>
        <mxCell id="vGsgT0Gbf7s0fRSy6tzb-16" style="edgeStyle=orthogonalEdgeStyle;rounded=0;orthogonalLoop=1;jettySize=auto;html=1;entryX=1;entryY=0.5;entryDx=0;entryDy=0;exitX=1;exitY=0.5;exitDx=0;exitDy=0;" edge="1" parent="1" source="vGsgT0Gbf7s0fRSy6tzb-17" target="vGsgT0Gbf7s0fRSy6tzb-9">
          <mxGeometry relative="1" as="geometry" />
        </mxCell>
        <mxCell id="vGsgT0Gbf7s0fRSy6tzb-28" style="edgeStyle=orthogonalEdgeStyle;rounded=0;orthogonalLoop=1;jettySize=auto;html=1;exitX=0;exitY=0.25;exitDx=0;exitDy=0;entryX=0;entryY=0.5;entryDx=0;entryDy=0;" edge="1" parent="1" source="vGsgT0Gbf7s0fRSy6tzb-17" target="vGsgT0Gbf7s0fRSy6tzb-27">
          <mxGeometry relative="1" as="geometry" />
        </mxCell>
        <mxCell id="vGsgT0Gbf7s0fRSy6tzb-17" value="&amp;lt;&amp;lt; entity &amp;gt;&amp;gt;&lt;br&gt;OrderConfirmation" style="html=1;whiteSpace=wrap;" vertex="1" parent="1">
          <mxGeometry x="740" y="-200" width="130" height="50" as="geometry" />
        </mxCell>
        <mxCell id="vGsgT0Gbf7s0fRSy6tzb-18" style="edgeStyle=orthogonalEdgeStyle;rounded=0;orthogonalLoop=1;jettySize=auto;html=1;" edge="1" parent="1" source="vGsgT0Gbf7s0fRSy6tzb-19" target="vGsgT0Gbf7s0fRSy6tzb-17">
          <mxGeometry relative="1" as="geometry" />
        </mxCell>
        <mxCell id="vGsgT0Gbf7s0fRSy6tzb-25" style="edgeStyle=orthogonalEdgeStyle;rounded=0;orthogonalLoop=1;jettySize=auto;html=1;exitX=0;exitY=0.25;exitDx=0;exitDy=0;entryX=1;entryY=0.5;entryDx=0;entryDy=0;" edge="1" parent="1" source="vGsgT0Gbf7s0fRSy6tzb-19" target="vGsgT0Gbf7s0fRSy6tzb-22">
          <mxGeometry relative="1" as="geometry" />
        </mxCell>
        <mxCell id="vGsgT0Gbf7s0fRSy6tzb-19" value="OrderConfirmationService" style="html=1;whiteSpace=wrap;" vertex="1" parent="1">
          <mxGeometry x="480" y="-200" width="160" height="50" as="geometry" />
        </mxCell>
        <mxCell id="vGsgT0Gbf7s0fRSy6tzb-20" value="KeycloakClient" style="html=1;whiteSpace=wrap;" vertex="1" parent="1">
          <mxGeometry x="245" y="150" width="110" height="50" as="geometry" />
        </mxCell>
        <mxCell id="vGsgT0Gbf7s0fRSy6tzb-31" style="edgeStyle=orthogonalEdgeStyle;rounded=0;orthogonalLoop=1;jettySize=auto;html=1;entryX=0;entryY=0.25;entryDx=0;entryDy=0;exitX=1;exitY=0.25;exitDx=0;exitDy=0;" edge="1" parent="1" source="vGsgT0Gbf7s0fRSy6tzb-22" target="vGsgT0Gbf7s0fRSy6tzb-27">
          <mxGeometry relative="1" as="geometry" />
        </mxCell>
        <mxCell id="f30gwW_MKu_hwVnbn6P4-5" style="edgeStyle=orthogonalEdgeStyle;rounded=0;orthogonalLoop=1;jettySize=auto;html=1;" edge="1" parent="1" source="vGsgT0Gbf7s0fRSy6tzb-22" target="f30gwW_MKu_hwVnbn6P4-3">
          <mxGeometry relative="1" as="geometry" />
        </mxCell>
        <mxCell id="vGsgT0Gbf7s0fRSy6tzb-22" value="&amp;lt;&amp;lt; abstract &amp;gt;&amp;gt;&lt;br&gt;BaseService" style="html=1;whiteSpace=wrap;" vertex="1" parent="1">
          <mxGeometry x="280" y="-320" width="160" height="50" as="geometry" />
        </mxCell>
        <mxCell id="vGsgT0Gbf7s0fRSy6tzb-27" value="&amp;lt;&amp;lt; abstract &amp;gt;&amp;gt;&lt;br&gt;BaseEntity" style="html=1;whiteSpace=wrap;" vertex="1" parent="1">
          <mxGeometry x="740" y="-320" width="130" height="50" as="geometry" />
        </mxCell>
        <mxCell id="f30gwW_MKu_hwVnbn6P4-1" value="OrderDTO" style="html=1;whiteSpace=wrap;" vertex="1" parent="1">
          <mxGeometry x="740" y="70" width="130" height="50" as="geometry" />
        </mxCell>
        <mxCell id="f30gwW_MKu_hwVnbn6P4-6" style="edgeStyle=orthogonalEdgeStyle;rounded=0;orthogonalLoop=1;jettySize=auto;html=1;" edge="1" parent="1" source="f30gwW_MKu_hwVnbn6P4-3" target="f30gwW_MKu_hwVnbn6P4-4">
          <mxGeometry relative="1" as="geometry" />
        </mxCell>
        <mxCell id="f30gwW_MKu_hwVnbn6P4-3" value="SessionManager" style="html=1;whiteSpace=wrap;" vertex="1" parent="1">
          <mxGeometry x="280" y="-420" width="160" height="50" as="geometry" />
        </mxCell>
        <mxCell id="f30gwW_MKu_hwVnbn6P4-4" value="Session" style="html=1;whiteSpace=wrap;" vertex="1" parent="1">
          <mxGeometry x="280" y="-510" width="160" height="50" as="geometry" />
        </mxCell>
        <mxCell id="f30gwW_MKu_hwVnbn6P4-7" value="OrderStatusUpdateDTO" style="html=1;whiteSpace=wrap;" vertex="1" parent="1">
          <mxGeometry x="740" y="140" width="130" height="50" as="geometry" />
        </mxCell>
      </root>
    </mxGraphModel>
  </diagram>
  <diagram id="VAT3mY56ua2n9i9pOg9V" name="Implementation">
    <mxGraphModel dx="2590" dy="2615" grid="1" gridSize="10" guides="1" tooltips="1" connect="1" arrows="1" fold="1" page="1" pageScale="1" pageWidth="850" pageHeight="1100" math="0" shadow="0">
      <root>
        <mxCell id="0" />
        <mxCell id="1" parent="0" />
        <mxCell id="kRkmtS1reu3eZ43qBKc3-1" value="" style="edgeStyle=orthogonalEdgeStyle;rounded=0;orthogonalLoop=1;jettySize=auto;html=1;" edge="1" parent="1" source="kRkmtS1reu3eZ43qBKc3-5" target="kRkmtS1reu3eZ43qBKc3-12">
          <mxGeometry relative="1" as="geometry" />
        </mxCell>
        <mxCell id="kRkmtS1reu3eZ43qBKc3-2" value="" style="edgeStyle=orthogonalEdgeStyle;rounded=0;orthogonalLoop=1;jettySize=auto;html=1;endArrow=none;endFill=0;" edge="1" parent="1" source="kRkmtS1reu3eZ43qBKc3-5" target="kRkmtS1reu3eZ43qBKc3-7">
          <mxGeometry relative="1" as="geometry" />
        </mxCell>
        <mxCell id="kRkmtS1reu3eZ43qBKc3-3" style="edgeStyle=orthogonalEdgeStyle;rounded=0;orthogonalLoop=1;jettySize=auto;html=1;entryX=0;entryY=0.5;entryDx=0;entryDy=0;exitX=0.5;exitY=0;exitDx=0;exitDy=0;" edge="1" parent="1" source="kRkmtS1reu3eZ43qBKc3-5" target="kRkmtS1reu3eZ43qBKc3-19">
          <mxGeometry relative="1" as="geometry" />
        </mxCell>
        <mxCell id="kRkmtS1reu3eZ43qBKc3-4" style="edgeStyle=orthogonalEdgeStyle;rounded=0;orthogonalLoop=1;jettySize=auto;html=1;entryX=0;entryY=0.5;entryDx=0;entryDy=0;exitX=0.5;exitY=0;exitDx=0;exitDy=0;" edge="1" parent="1" source="kRkmtS1reu3eZ43qBKc3-5" target="kRkmtS1reu3eZ43qBKc3-28">
          <mxGeometry relative="1" as="geometry" />
        </mxCell>
        <mxCell id="kRkmtS1reu3eZ43qBKc3-5" value="OrderController" style="html=1;whiteSpace=wrap;" vertex="1" parent="1">
          <mxGeometry x="220" y="-20" width="160" height="50" as="geometry" />
        </mxCell>
        <mxCell id="kRkmtS1reu3eZ43qBKc3-6" style="edgeStyle=orthogonalEdgeStyle;rounded=0;orthogonalLoop=1;jettySize=auto;html=1;" edge="1" parent="1" source="kRkmtS1reu3eZ43qBKc3-7" target="kRkmtS1reu3eZ43qBKc3-29">
          <mxGeometry relative="1" as="geometry" />
        </mxCell>
        <mxCell id="kRkmtS1reu3eZ43qBKc3-7" value="Auth Manager" style="html=1;whiteSpace=wrap;" vertex="1" parent="1">
          <mxGeometry x="245" y="70" width="110" height="50" as="geometry" />
        </mxCell>
        <mxCell id="kRkmtS1reu3eZ43qBKc3-8" value="" style="edgeStyle=orthogonalEdgeStyle;rounded=0;orthogonalLoop=1;jettySize=auto;html=1;" edge="1" parent="1" source="kRkmtS1reu3eZ43qBKc3-12" target="kRkmtS1reu3eZ43qBKc3-14">
          <mxGeometry relative="1" as="geometry" />
        </mxCell>
        <mxCell id="kRkmtS1reu3eZ43qBKc3-9" style="edgeStyle=orthogonalEdgeStyle;rounded=0;orthogonalLoop=1;jettySize=auto;html=1;exitX=0;exitY=0.25;exitDx=0;exitDy=0;entryX=1;entryY=0.5;entryDx=0;entryDy=0;" edge="1" parent="1" source="kRkmtS1reu3eZ43qBKc3-12" target="kRkmtS1reu3eZ43qBKc3-32">
          <mxGeometry relative="1" as="geometry" />
        </mxCell>
        <mxCell id="kRkmtS1reu3eZ43qBKc3-10" style="edgeStyle=orthogonalEdgeStyle;rounded=0;orthogonalLoop=1;jettySize=auto;html=1;entryX=0;entryY=0.5;entryDx=0;entryDy=0;" edge="1" parent="1" source="kRkmtS1reu3eZ43qBKc3-12" target="kRkmtS1reu3eZ43qBKc3-34">
          <mxGeometry relative="1" as="geometry" />
        </mxCell>
        <mxCell id="kRkmtS1reu3eZ43qBKc3-11" style="edgeStyle=orthogonalEdgeStyle;rounded=0;orthogonalLoop=1;jettySize=auto;html=1;entryX=0;entryY=0.5;entryDx=0;entryDy=0;" edge="1" parent="1" source="kRkmtS1reu3eZ43qBKc3-12" target="kRkmtS1reu3eZ43qBKc3-38">
          <mxGeometry relative="1" as="geometry" />
        </mxCell>
        <mxCell id="XG4IslfV-Pxhvq0_3yna-45" style="edgeStyle=orthogonalEdgeStyle;rounded=0;orthogonalLoop=1;jettySize=auto;html=1;entryX=0;entryY=0.5;entryDx=0;entryDy=0;" edge="1" parent="1" source="kRkmtS1reu3eZ43qBKc3-12" target="XG4IslfV-Pxhvq0_3yna-44">
          <mxGeometry relative="1" as="geometry" />
        </mxCell>
        <mxCell id="kRkmtS1reu3eZ43qBKc3-12" value="OrderService" style="html=1;whiteSpace=wrap;" vertex="1" parent="1">
          <mxGeometry x="480" y="-20" width="160" height="50" as="geometry" />
        </mxCell>
        <mxCell id="kRkmtS1reu3eZ43qBKc3-13" style="edgeStyle=orthogonalEdgeStyle;rounded=0;orthogonalLoop=1;jettySize=auto;html=1;exitX=0;exitY=0.25;exitDx=0;exitDy=0;entryX=0;entryY=0.5;entryDx=0;entryDy=0;" edge="1" parent="1" source="kRkmtS1reu3eZ43qBKc3-14" target="kRkmtS1reu3eZ43qBKc3-33">
          <mxGeometry relative="1" as="geometry" />
        </mxCell>
        <mxCell id="kRkmtS1reu3eZ43qBKc3-14" value="&amp;lt;&amp;lt; entity &amp;gt;&amp;gt;&lt;br&gt;Order" style="html=1;whiteSpace=wrap;" vertex="1" parent="1">
          <mxGeometry x="740" y="-20" width="130" height="50" as="geometry" />
        </mxCell>
        <mxCell id="kRkmtS1reu3eZ43qBKc3-15" style="edgeStyle=orthogonalEdgeStyle;rounded=0;orthogonalLoop=1;jettySize=auto;html=1;" edge="1" parent="1" source="kRkmtS1reu3eZ43qBKc3-16" target="kRkmtS1reu3eZ43qBKc3-5">
          <mxGeometry relative="1" as="geometry" />
        </mxCell>
        <mxCell id="kRkmtS1reu3eZ43qBKc3-16" value="Router" style="html=1;whiteSpace=wrap;" vertex="1" parent="1">
          <mxGeometry x="60" y="-20" width="110" height="50" as="geometry" />
        </mxCell>
        <mxCell id="kRkmtS1reu3eZ43qBKc3-17" value="" style="edgeStyle=orthogonalEdgeStyle;rounded=0;orthogonalLoop=1;jettySize=auto;html=1;" edge="1" parent="1" source="kRkmtS1reu3eZ43qBKc3-19" target="kRkmtS1reu3eZ43qBKc3-22">
          <mxGeometry relative="1" as="geometry" />
        </mxCell>
        <mxCell id="kRkmtS1reu3eZ43qBKc3-18" style="edgeStyle=orthogonalEdgeStyle;rounded=0;orthogonalLoop=1;jettySize=auto;html=1;entryX=1;entryY=0.5;entryDx=0;entryDy=0;exitX=0;exitY=0.25;exitDx=0;exitDy=0;" edge="1" parent="1" source="kRkmtS1reu3eZ43qBKc3-19" target="kRkmtS1reu3eZ43qBKc3-32">
          <mxGeometry relative="1" as="geometry" />
        </mxCell>
        <mxCell id="kRkmtS1reu3eZ43qBKc3-19" value="OrderStatusService" style="html=1;whiteSpace=wrap;" vertex="1" parent="1">
          <mxGeometry x="480" y="-110" width="160" height="50" as="geometry" />
        </mxCell>
        <mxCell id="kRkmtS1reu3eZ43qBKc3-20" style="edgeStyle=orthogonalEdgeStyle;rounded=0;orthogonalLoop=1;jettySize=auto;html=1;entryX=1;entryY=0.5;entryDx=0;entryDy=0;exitX=1;exitY=0.5;exitDx=0;exitDy=0;" edge="1" parent="1" source="kRkmtS1reu3eZ43qBKc3-22" target="kRkmtS1reu3eZ43qBKc3-14">
          <mxGeometry relative="1" as="geometry" />
        </mxCell>
        <mxCell id="kRkmtS1reu3eZ43qBKc3-21" style="edgeStyle=orthogonalEdgeStyle;rounded=0;orthogonalLoop=1;jettySize=auto;html=1;exitX=0;exitY=0.25;exitDx=0;exitDy=0;entryX=0;entryY=0.5;entryDx=0;entryDy=0;" edge="1" parent="1" source="kRkmtS1reu3eZ43qBKc3-22" target="kRkmtS1reu3eZ43qBKc3-33">
          <mxGeometry relative="1" as="geometry" />
        </mxCell>
        <mxCell id="kRkmtS1reu3eZ43qBKc3-22" value="&amp;lt;&amp;lt; entity &amp;gt;&amp;gt;&lt;br&gt;OrderStatus" style="html=1;whiteSpace=wrap;" vertex="1" parent="1">
          <mxGeometry x="740" y="-110" width="130" height="50" as="geometry" />
        </mxCell>
        <mxCell id="kRkmtS1reu3eZ43qBKc3-23" style="edgeStyle=orthogonalEdgeStyle;rounded=0;orthogonalLoop=1;jettySize=auto;html=1;entryX=1;entryY=0.5;entryDx=0;entryDy=0;exitX=1;exitY=0.5;exitDx=0;exitDy=0;" edge="1" parent="1" source="kRkmtS1reu3eZ43qBKc3-25" target="kRkmtS1reu3eZ43qBKc3-14">
          <mxGeometry relative="1" as="geometry" />
        </mxCell>
        <mxCell id="kRkmtS1reu3eZ43qBKc3-24" style="edgeStyle=orthogonalEdgeStyle;rounded=0;orthogonalLoop=1;jettySize=auto;html=1;exitX=0;exitY=0.25;exitDx=0;exitDy=0;entryX=0;entryY=0.5;entryDx=0;entryDy=0;" edge="1" parent="1" source="kRkmtS1reu3eZ43qBKc3-25" target="kRkmtS1reu3eZ43qBKc3-33">
          <mxGeometry relative="1" as="geometry" />
        </mxCell>
        <mxCell id="kRkmtS1reu3eZ43qBKc3-25" value="&amp;lt;&amp;lt; entity &amp;gt;&amp;gt;&lt;br&gt;OrderConfirmation" style="html=1;whiteSpace=wrap;" vertex="1" parent="1">
          <mxGeometry x="740" y="-200" width="130" height="50" as="geometry" />
        </mxCell>
        <mxCell id="kRkmtS1reu3eZ43qBKc3-26" style="edgeStyle=orthogonalEdgeStyle;rounded=0;orthogonalLoop=1;jettySize=auto;html=1;" edge="1" parent="1" source="kRkmtS1reu3eZ43qBKc3-28" target="kRkmtS1reu3eZ43qBKc3-25">
          <mxGeometry relative="1" as="geometry" />
        </mxCell>
        <mxCell id="kRkmtS1reu3eZ43qBKc3-27" style="edgeStyle=orthogonalEdgeStyle;rounded=0;orthogonalLoop=1;jettySize=auto;html=1;exitX=0;exitY=0.25;exitDx=0;exitDy=0;entryX=1;entryY=0.5;entryDx=0;entryDy=0;" edge="1" parent="1" source="kRkmtS1reu3eZ43qBKc3-28" target="kRkmtS1reu3eZ43qBKc3-32">
          <mxGeometry relative="1" as="geometry" />
        </mxCell>
        <mxCell id="kRkmtS1reu3eZ43qBKc3-28" value="OrderConfirmationService" style="html=1;whiteSpace=wrap;" vertex="1" parent="1">
          <mxGeometry x="480" y="-200" width="160" height="50" as="geometry" />
        </mxCell>
        <mxCell id="kRkmtS1reu3eZ43qBKc3-29" value="KeycloakClient" style="html=1;whiteSpace=wrap;" vertex="1" parent="1">
          <mxGeometry x="245" y="150" width="110" height="50" as="geometry" />
        </mxCell>
        <mxCell id="kRkmtS1reu3eZ43qBKc3-30" style="edgeStyle=orthogonalEdgeStyle;rounded=0;orthogonalLoop=1;jettySize=auto;html=1;entryX=0;entryY=0.25;entryDx=0;entryDy=0;exitX=1;exitY=0.25;exitDx=0;exitDy=0;" edge="1" parent="1" source="kRkmtS1reu3eZ43qBKc3-32" target="kRkmtS1reu3eZ43qBKc3-33">
          <mxGeometry relative="1" as="geometry" />
        </mxCell>
        <mxCell id="kRkmtS1reu3eZ43qBKc3-31" style="edgeStyle=orthogonalEdgeStyle;rounded=0;orthogonalLoop=1;jettySize=auto;html=1;" edge="1" parent="1" source="kRkmtS1reu3eZ43qBKc3-32" target="kRkmtS1reu3eZ43qBKc3-36">
          <mxGeometry relative="1" as="geometry" />
        </mxCell>
        <mxCell id="kRkmtS1reu3eZ43qBKc3-32" value="BaseService&lt;br&gt;{abstract}" style="html=1;whiteSpace=wrap;" vertex="1" parent="1">
          <mxGeometry x="280" y="-320" width="160" height="50" as="geometry" />
        </mxCell>
        <mxCell id="kRkmtS1reu3eZ43qBKc3-33" value="&amp;lt;&amp;lt; entity &amp;gt;&amp;gt;&lt;br&gt;BaseEntity&lt;br&gt;{abstract}" style="html=1;whiteSpace=wrap;" vertex="1" parent="1">
          <mxGeometry x="740" y="-320" width="130" height="50" as="geometry" />
        </mxCell>
        <mxCell id="kRkmtS1reu3eZ43qBKc3-34" value="OrderDTO" style="html=1;whiteSpace=wrap;" vertex="1" parent="1">
          <mxGeometry x="740" y="100" width="130" height="50" as="geometry" />
        </mxCell>
        <mxCell id="kRkmtS1reu3eZ43qBKc3-35" style="edgeStyle=orthogonalEdgeStyle;rounded=0;orthogonalLoop=1;jettySize=auto;html=1;" edge="1" parent="1" source="kRkmtS1reu3eZ43qBKc3-36" target="kRkmtS1reu3eZ43qBKc3-37">
          <mxGeometry relative="1" as="geometry" />
        </mxCell>
        <mxCell id="kRkmtS1reu3eZ43qBKc3-36" value="SessionManager" style="html=1;whiteSpace=wrap;" vertex="1" parent="1">
          <mxGeometry x="280" y="-420" width="160" height="50" as="geometry" />
        </mxCell>
        <mxCell id="kRkmtS1reu3eZ43qBKc3-37" value="Session" style="html=1;whiteSpace=wrap;" vertex="1" parent="1">
          <mxGeometry x="280" y="-510" width="160" height="50" as="geometry" />
        </mxCell>
        <mxCell id="kRkmtS1reu3eZ43qBKc3-38" value="OrderStatusUpdateDTO" style="html=1;whiteSpace=wrap;" vertex="1" parent="1">
          <mxGeometry x="740" y="170" width="130" height="50" as="geometry" />
        </mxCell>
        <mxCell id="XG4IslfV-Pxhvq0_3yna-9" value="&lt;span style=&quot;font-weight: normal;&quot;&gt;&amp;lt;&amp;lt; entity &amp;gt;&amp;gt;&lt;/span&gt;&lt;br&gt;BaseEntity&lt;br&gt;&lt;span style=&quot;font-weight: normal;&quot;&gt;{abstract}&lt;/span&gt;" style="swimlane;fontStyle=1;align=center;verticalAlign=top;childLayout=stackLayout;horizontal=1;startSize=60;horizontalStack=0;resizeParent=1;resizeParentMax=0;resizeLast=0;collapsible=1;marginBottom=0;whiteSpace=wrap;html=1;" vertex="1" parent="1">
          <mxGeometry x="1820" y="-890" width="220" height="94" as="geometry" />
        </mxCell>
        <mxCell id="XG4IslfV-Pxhvq0_3yna-11" value="" style="line;strokeWidth=1;fillColor=none;align=left;verticalAlign=middle;spacingTop=-1;spacingLeft=3;spacingRight=3;rotatable=0;labelPosition=right;points=[];portConstraint=eastwest;strokeColor=inherit;" vertex="1" parent="XG4IslfV-Pxhvq0_3yna-9">
          <mxGeometry y="60" width="220" height="8" as="geometry" />
        </mxCell>
        <mxCell id="XG4IslfV-Pxhvq0_3yna-12" value="- __tablename__(): str" style="text;strokeColor=none;fillColor=none;align=left;verticalAlign=top;spacingLeft=4;spacingRight=4;overflow=hidden;rotatable=0;points=[[0,0.5],[1,0.5]];portConstraint=eastwest;whiteSpace=wrap;html=1;" vertex="1" parent="XG4IslfV-Pxhvq0_3yna-9">
          <mxGeometry y="68" width="220" height="26" as="geometry" />
        </mxCell>
        <mxCell id="XG4IslfV-Pxhvq0_3yna-25" style="edgeStyle=orthogonalEdgeStyle;rounded=0;orthogonalLoop=1;jettySize=auto;html=1;endArrow=block;endFill=0;" edge="1" parent="1" source="XG4IslfV-Pxhvq0_3yna-26" target="XG4IslfV-Pxhvq0_3yna-9">
          <mxGeometry relative="1" as="geometry">
            <mxPoint x="1930" y="-661" as="sourcePoint" />
          </mxGeometry>
        </mxCell>
        <mxCell id="XG4IslfV-Pxhvq0_3yna-26" value="&lt;span style=&quot;font-weight: normal;&quot;&gt;&amp;lt;&amp;lt; entity &amp;gt;&amp;gt;&lt;/span&gt;&lt;br&gt;TimeStamped&lt;br&gt;&lt;span style=&quot;font-weight: normal;&quot;&gt;{abstract}&lt;/span&gt;" style="swimlane;fontStyle=1;align=center;verticalAlign=top;childLayout=stackLayout;horizontal=1;startSize=60;horizontalStack=0;resizeParent=1;resizeParentMax=0;resizeLast=0;collapsible=1;marginBottom=0;whiteSpace=wrap;html=1;" vertex="1" parent="1">
          <mxGeometry x="1820" y="-750" width="220" height="120" as="geometry" />
        </mxCell>
        <mxCell id="XG4IslfV-Pxhvq0_3yna-28" value="- createdAt: timestamp" style="text;strokeColor=none;fillColor=none;align=left;verticalAlign=top;spacingLeft=4;spacingRight=4;overflow=hidden;rotatable=0;points=[[0,0.5],[1,0.5]];portConstraint=eastwest;whiteSpace=wrap;html=1;" vertex="1" parent="XG4IslfV-Pxhvq0_3yna-26">
          <mxGeometry y="60" width="220" height="26" as="geometry" />
        </mxCell>
        <mxCell id="XG4IslfV-Pxhvq0_3yna-29" value="- updatedAt: timestamp" style="text;strokeColor=none;fillColor=none;align=left;verticalAlign=top;spacingLeft=4;spacingRight=4;overflow=hidden;rotatable=0;points=[[0,0.5],[1,0.5]];portConstraint=eastwest;whiteSpace=wrap;html=1;" vertex="1" parent="XG4IslfV-Pxhvq0_3yna-26">
          <mxGeometry y="86" width="220" height="26" as="geometry" />
        </mxCell>
        <mxCell id="XG4IslfV-Pxhvq0_3yna-30" value="" style="line;strokeWidth=1;fillColor=none;align=left;verticalAlign=middle;spacingTop=-1;spacingLeft=3;spacingRight=3;rotatable=0;labelPosition=right;points=[];portConstraint=eastwest;strokeColor=inherit;" vertex="1" parent="XG4IslfV-Pxhvq0_3yna-26">
          <mxGeometry y="112" width="220" height="8" as="geometry" />
        </mxCell>
        <mxCell id="XG4IslfV-Pxhvq0_3yna-37" style="edgeStyle=orthogonalEdgeStyle;rounded=0;orthogonalLoop=1;jettySize=auto;html=1;endArrow=block;endFill=0;" edge="1" parent="1" source="XG4IslfV-Pxhvq0_3yna-32" target="XG4IslfV-Pxhvq0_3yna-26">
          <mxGeometry relative="1" as="geometry" />
        </mxCell>
        <mxCell id="XG4IslfV-Pxhvq0_3yna-32" value="&lt;span style=&quot;font-weight: normal;&quot;&gt;&amp;lt;&amp;lt; entity &amp;gt;&amp;gt;&lt;/span&gt;&lt;br&gt;TimeStampedWithId&lt;br&gt;&lt;span style=&quot;font-weight: normal;&quot;&gt;{abstract}&lt;/span&gt;" style="swimlane;fontStyle=1;align=center;verticalAlign=top;childLayout=stackLayout;horizontal=1;startSize=60;horizontalStack=0;resizeParent=1;resizeParentMax=0;resizeLast=0;collapsible=1;marginBottom=0;whiteSpace=wrap;html=1;" vertex="1" parent="1">
          <mxGeometry x="1820" y="-590" width="220" height="94" as="geometry" />
        </mxCell>
        <mxCell id="XG4IslfV-Pxhvq0_3yna-33" value="- id: uuid" style="text;strokeColor=none;fillColor=none;align=left;verticalAlign=top;spacingLeft=4;spacingRight=4;overflow=hidden;rotatable=0;points=[[0,0.5],[1,0.5]];portConstraint=eastwest;whiteSpace=wrap;html=1;" vertex="1" parent="XG4IslfV-Pxhvq0_3yna-32">
          <mxGeometry y="60" width="220" height="26" as="geometry" />
        </mxCell>
        <mxCell id="XG4IslfV-Pxhvq0_3yna-35" value="" style="line;strokeWidth=1;fillColor=none;align=left;verticalAlign=middle;spacingTop=-1;spacingLeft=3;spacingRight=3;rotatable=0;labelPosition=right;points=[];portConstraint=eastwest;strokeColor=inherit;" vertex="1" parent="XG4IslfV-Pxhvq0_3yna-32">
          <mxGeometry y="86" width="220" height="8" as="geometry" />
        </mxCell>
        <mxCell id="XG4IslfV-Pxhvq0_3yna-39" value="BaseService&lt;br&gt;&lt;span style=&quot;font-weight: normal;&quot;&gt;{abstract}&lt;/span&gt;" style="swimlane;fontStyle=1;align=center;verticalAlign=top;childLayout=stackLayout;horizontal=1;startSize=50;horizontalStack=0;resizeParent=1;resizeParentMax=0;resizeLast=0;collapsible=1;marginBottom=0;whiteSpace=wrap;html=1;" vertex="1" parent="1">
          <mxGeometry x="270" y="-760" width="220" height="84" as="geometry" />
        </mxCell>
        <mxCell id="XG4IslfV-Pxhvq0_3yna-40" value="" style="line;strokeWidth=1;fillColor=none;align=left;verticalAlign=middle;spacingTop=-1;spacingLeft=3;spacingRight=3;rotatable=0;labelPosition=right;points=[];portConstraint=eastwest;strokeColor=inherit;" vertex="1" parent="XG4IslfV-Pxhvq0_3yna-39">
          <mxGeometry y="50" width="220" height="8" as="geometry" />
        </mxCell>
        <mxCell id="XG4IslfV-Pxhvq0_3yna-41" value="- __tablename__(): str" style="text;strokeColor=none;fillColor=none;align=left;verticalAlign=top;spacingLeft=4;spacingRight=4;overflow=hidden;rotatable=0;points=[[0,0.5],[1,0.5]];portConstraint=eastwest;whiteSpace=wrap;html=1;" vertex="1" parent="XG4IslfV-Pxhvq0_3yna-39">
          <mxGeometry y="58" width="220" height="26" as="geometry" />
        </mxCell>
        <mxCell id="XG4IslfV-Pxhvq0_3yna-44" value="UserDTO" style="html=1;whiteSpace=wrap;" vertex="1" parent="1">
          <mxGeometry x="740" y="240" width="130" height="50" as="geometry" />
        </mxCell>
        <mxCell id="XG4IslfV-Pxhvq0_3yna-50" style="edgeStyle=orthogonalEdgeStyle;rounded=0;orthogonalLoop=1;jettySize=auto;html=1;endArrow=block;endFill=0;dashed=1;" edge="1" parent="1" source="XG4IslfV-Pxhvq0_3yna-46" target="XG4IslfV-Pxhvq0_3yna-32">
          <mxGeometry relative="1" as="geometry" />
        </mxCell>
        <mxCell id="XG4IslfV-Pxhvq0_3yna-54" style="edgeStyle=orthogonalEdgeStyle;rounded=0;orthogonalLoop=1;jettySize=auto;html=1;endArrow=none;endFill=0;exitX=1;exitY=0.5;exitDx=0;exitDy=0;" edge="1" parent="1" source="XG4IslfV-Pxhvq0_3yna-47" target="XG4IslfV-Pxhvq0_3yna-51">
          <mxGeometry relative="1" as="geometry" />
        </mxCell>
        <mxCell id="XG4IslfV-Pxhvq0_3yna-66" value="" style="edgeStyle=orthogonalEdgeStyle;rounded=0;orthogonalLoop=1;jettySize=auto;html=1;endArrow=none;endFill=0;exitX=0;exitY=0.5;exitDx=0;exitDy=0;" edge="1" parent="1" source="XG4IslfV-Pxhvq0_3yna-61" target="XG4IslfV-Pxhvq0_3yna-62">
          <mxGeometry relative="1" as="geometry" />
        </mxCell>
        <mxCell id="XG4IslfV-Pxhvq0_3yna-46" value="&lt;span style=&quot;font-weight: normal;&quot;&gt;&amp;lt;&amp;lt; entity &amp;gt;&amp;gt;&lt;br&gt;&lt;/span&gt;Order" style="swimlane;fontStyle=1;align=center;verticalAlign=top;childLayout=stackLayout;horizontal=1;startSize=44;horizontalStack=0;resizeParent=1;resizeParentMax=0;resizeLast=0;collapsible=1;marginBottom=0;whiteSpace=wrap;html=1;" vertex="1" parent="1">
          <mxGeometry x="1820" y="-434" width="220" height="182" as="geometry" />
        </mxCell>
        <mxCell id="XG4IslfV-Pxhvq0_3yna-47" value="status: OrderStatusEnum" style="text;strokeColor=none;fillColor=none;align=left;verticalAlign=top;spacingLeft=4;spacingRight=4;overflow=hidden;rotatable=0;points=[[0,0.5],[1,0.5]];portConstraint=eastwest;whiteSpace=wrap;html=1;" vertex="1" parent="XG4IslfV-Pxhvq0_3yna-46">
          <mxGeometry y="44" width="220" height="26" as="geometry" />
        </mxCell>
        <mxCell id="XG4IslfV-Pxhvq0_3yna-61" value="order_type: OrderType" style="text;strokeColor=none;fillColor=none;align=left;verticalAlign=top;spacingLeft=4;spacingRight=4;overflow=hidden;rotatable=0;points=[[0,0.5],[1,0.5]];portConstraint=eastwest;whiteSpace=wrap;html=1;" vertex="1" parent="XG4IslfV-Pxhvq0_3yna-46">
          <mxGeometry y="70" width="220" height="26" as="geometry" />
        </mxCell>
        <mxCell id="XG4IslfV-Pxhvq0_3yna-80" value="parent_order: Order" style="text;strokeColor=none;fillColor=none;align=left;verticalAlign=top;spacingLeft=4;spacingRight=4;overflow=hidden;rotatable=0;points=[[0,0.5],[1,0.5]];portConstraint=eastwest;whiteSpace=wrap;html=1;" vertex="1" parent="XG4IslfV-Pxhvq0_3yna-46">
          <mxGeometry y="96" width="220" height="26" as="geometry" />
        </mxCell>
        <mxCell id="XG4IslfV-Pxhvq0_3yna-79" value="user_implementer: uuid" style="text;strokeColor=none;fillColor=none;align=left;verticalAlign=top;spacingLeft=4;spacingRight=4;overflow=hidden;rotatable=0;points=[[0,0.5],[1,0.5]];portConstraint=eastwest;whiteSpace=wrap;html=1;" vertex="1" parent="XG4IslfV-Pxhvq0_3yna-46">
          <mxGeometry y="122" width="220" height="26" as="geometry" />
        </mxCell>
        <mxCell id="XG4IslfV-Pxhvq0_3yna-78" value="user_customer: uuid" style="text;strokeColor=none;fillColor=none;align=left;verticalAlign=top;spacingLeft=4;spacingRight=4;overflow=hidden;rotatable=0;points=[[0,0.5],[1,0.5]];portConstraint=eastwest;whiteSpace=wrap;html=1;" vertex="1" parent="XG4IslfV-Pxhvq0_3yna-46">
          <mxGeometry y="148" width="220" height="26" as="geometry" />
        </mxCell>
        <mxCell id="XG4IslfV-Pxhvq0_3yna-48" value="" style="line;strokeWidth=1;fillColor=none;align=left;verticalAlign=middle;spacingTop=-1;spacingLeft=3;spacingRight=3;rotatable=0;labelPosition=right;points=[];portConstraint=eastwest;strokeColor=inherit;" vertex="1" parent="XG4IslfV-Pxhvq0_3yna-46">
          <mxGeometry y="174" width="220" height="8" as="geometry" />
        </mxCell>
        <mxCell id="XG4IslfV-Pxhvq0_3yna-51" value="&lt;span style=&quot;font-weight: normal;&quot;&gt;&amp;lt;&amp;lt; enumeration &amp;gt;&amp;gt;&lt;br&gt;&lt;/span&gt;OrderStatusEnum" style="swimlane;fontStyle=1;align=center;verticalAlign=top;childLayout=stackLayout;horizontal=1;startSize=44;horizontalStack=0;resizeParent=1;resizeParentMax=0;resizeLast=0;collapsible=1;marginBottom=0;whiteSpace=wrap;html=1;" vertex="1" parent="1">
          <mxGeometry x="2170" y="-494" width="220" height="234" as="geometry" />
        </mxCell>
        <mxCell id="XG4IslfV-Pxhvq0_3yna-52" value="NEW" style="text;strokeColor=none;fillColor=none;align=left;verticalAlign=top;spacingLeft=4;spacingRight=4;overflow=hidden;rotatable=0;points=[[0,0.5],[1,0.5]];portConstraint=eastwest;whiteSpace=wrap;html=1;" vertex="1" parent="XG4IslfV-Pxhvq0_3yna-51">
          <mxGeometry y="44" width="220" height="26" as="geometry" />
        </mxCell>
        <mxCell id="XG4IslfV-Pxhvq0_3yna-55" value="READY" style="text;strokeColor=none;fillColor=none;align=left;verticalAlign=top;spacingLeft=4;spacingRight=4;overflow=hidden;rotatable=0;points=[[0,0.5],[1,0.5]];portConstraint=eastwest;whiteSpace=wrap;html=1;" vertex="1" parent="XG4IslfV-Pxhvq0_3yna-51">
          <mxGeometry y="70" width="220" height="26" as="geometry" />
        </mxCell>
        <mxCell id="XG4IslfV-Pxhvq0_3yna-60" value="REMOVED" style="text;strokeColor=none;fillColor=none;align=left;verticalAlign=top;spacingLeft=4;spacingRight=4;overflow=hidden;rotatable=0;points=[[0,0.5],[1,0.5]];portConstraint=eastwest;whiteSpace=wrap;html=1;" vertex="1" parent="XG4IslfV-Pxhvq0_3yna-51">
          <mxGeometry y="96" width="220" height="26" as="geometry" />
        </mxCell>
        <mxCell id="XG4IslfV-Pxhvq0_3yna-59" value="TO_REMOVE" style="text;strokeColor=none;fillColor=none;align=left;verticalAlign=top;spacingLeft=4;spacingRight=4;overflow=hidden;rotatable=0;points=[[0,0.5],[1,0.5]];portConstraint=eastwest;whiteSpace=wrap;html=1;" vertex="1" parent="XG4IslfV-Pxhvq0_3yna-51">
          <mxGeometry y="122" width="220" height="26" as="geometry" />
        </mxCell>
        <mxCell id="XG4IslfV-Pxhvq0_3yna-58" value="ACCEPTED" style="text;strokeColor=none;fillColor=none;align=left;verticalAlign=top;spacingLeft=4;spacingRight=4;overflow=hidden;rotatable=0;points=[[0,0.5],[1,0.5]];portConstraint=eastwest;whiteSpace=wrap;html=1;" vertex="1" parent="XG4IslfV-Pxhvq0_3yna-51">
          <mxGeometry y="148" width="220" height="26" as="geometry" />
        </mxCell>
        <mxCell id="XG4IslfV-Pxhvq0_3yna-57" value="DONE" style="text;strokeColor=none;fillColor=none;align=left;verticalAlign=top;spacingLeft=4;spacingRight=4;overflow=hidden;rotatable=0;points=[[0,0.5],[1,0.5]];portConstraint=eastwest;whiteSpace=wrap;html=1;" vertex="1" parent="XG4IslfV-Pxhvq0_3yna-51">
          <mxGeometry y="174" width="220" height="26" as="geometry" />
        </mxCell>
        <mxCell id="XG4IslfV-Pxhvq0_3yna-56" value="IN_PROGRESS" style="text;strokeColor=none;fillColor=none;align=left;verticalAlign=top;spacingLeft=4;spacingRight=4;overflow=hidden;rotatable=0;points=[[0,0.5],[1,0.5]];portConstraint=eastwest;whiteSpace=wrap;html=1;" vertex="1" parent="XG4IslfV-Pxhvq0_3yna-51">
          <mxGeometry y="200" width="220" height="26" as="geometry" />
        </mxCell>
        <mxCell id="XG4IslfV-Pxhvq0_3yna-53" value="" style="line;strokeWidth=1;fillColor=none;align=left;verticalAlign=middle;spacingTop=-1;spacingLeft=3;spacingRight=3;rotatable=0;labelPosition=right;points=[];portConstraint=eastwest;strokeColor=inherit;" vertex="1" parent="XG4IslfV-Pxhvq0_3yna-51">
          <mxGeometry y="226" width="220" height="8" as="geometry" />
        </mxCell>
        <mxCell id="XG4IslfV-Pxhvq0_3yna-62" value="&lt;span style=&quot;font-weight: normal;&quot;&gt;&amp;lt;&amp;lt; entity &amp;gt;&amp;gt;&lt;br&gt;&lt;/span&gt;OrderType" style="swimlane;fontStyle=1;align=center;verticalAlign=top;childLayout=stackLayout;horizontal=1;startSize=44;horizontalStack=0;resizeParent=1;resizeParentMax=0;resizeLast=0;collapsible=1;marginBottom=0;whiteSpace=wrap;html=1;" vertex="1" parent="1">
          <mxGeometry x="1500" y="-434" width="220" height="130" as="geometry" />
        </mxCell>
        <mxCell id="XG4IslfV-Pxhvq0_3yna-63" value="name: string" style="text;strokeColor=none;fillColor=none;align=left;verticalAlign=top;spacingLeft=4;spacingRight=4;overflow=hidden;rotatable=0;points=[[0,0.5],[1,0.5]];portConstraint=eastwest;whiteSpace=wrap;html=1;" vertex="1" parent="XG4IslfV-Pxhvq0_3yna-62">
          <mxGeometry y="44" width="220" height="26" as="geometry" />
        </mxCell>
        <mxCell id="XG4IslfV-Pxhvq0_3yna-64" value="" style="line;strokeWidth=1;fillColor=none;align=left;verticalAlign=middle;spacingTop=-1;spacingLeft=3;spacingRight=3;rotatable=0;labelPosition=right;points=[];portConstraint=eastwest;strokeColor=inherit;" vertex="1" parent="XG4IslfV-Pxhvq0_3yna-62">
          <mxGeometry y="70" width="220" height="8" as="geometry" />
        </mxCell>
        <mxCell id="XG4IslfV-Pxhvq0_3yna-65" value="order_type: OrderType" style="text;strokeColor=none;fillColor=none;align=left;verticalAlign=top;spacingLeft=4;spacingRight=4;overflow=hidden;rotatable=0;points=[[0,0.5],[1,0.5]];portConstraint=eastwest;whiteSpace=wrap;html=1;" vertex="1" parent="XG4IslfV-Pxhvq0_3yna-62">
          <mxGeometry y="78" width="220" height="26" as="geometry" />
        </mxCell>
        <mxCell id="XG4IslfV-Pxhvq0_3yna-76" value="dep_type: OrderDepType" style="text;strokeColor=none;fillColor=none;align=left;verticalAlign=top;spacingLeft=4;spacingRight=4;overflow=hidden;rotatable=0;points=[[0,0.5],[1,0.5]];portConstraint=eastwest;whiteSpace=wrap;html=1;" vertex="1" parent="XG4IslfV-Pxhvq0_3yna-62">
          <mxGeometry y="104" width="220" height="26" as="geometry" />
        </mxCell>
        <mxCell id="XG4IslfV-Pxhvq0_3yna-67" value="&lt;span style=&quot;font-weight: normal;&quot;&gt;&amp;lt;&amp;lt; enumeration &amp;gt;&amp;gt;&lt;br&gt;&lt;/span&gt;OrderDepType" style="swimlane;fontStyle=1;align=center;verticalAlign=top;childLayout=stackLayout;horizontal=1;startSize=44;horizontalStack=0;resizeParent=1;resizeParentMax=0;resizeLast=0;collapsible=1;marginBottom=0;whiteSpace=wrap;html=1;" vertex="1" parent="1">
          <mxGeometry x="1190" y="-455" width="220" height="156" as="geometry" />
        </mxCell>
        <mxCell id="XG4IslfV-Pxhvq0_3yna-68" value="MAIN" style="text;strokeColor=none;fillColor=none;align=left;verticalAlign=top;spacingLeft=4;spacingRight=4;overflow=hidden;rotatable=0;points=[[0,0.5],[1,0.5]];portConstraint=eastwest;whiteSpace=wrap;html=1;" vertex="1" parent="XG4IslfV-Pxhvq0_3yna-67">
          <mxGeometry y="44" width="220" height="26" as="geometry" />
        </mxCell>
        <mxCell id="XG4IslfV-Pxhvq0_3yna-69" value="OPTIONAL" style="text;strokeColor=none;fillColor=none;align=left;verticalAlign=top;spacingLeft=4;spacingRight=4;overflow=hidden;rotatable=0;points=[[0,0.5],[1,0.5]];portConstraint=eastwest;whiteSpace=wrap;html=1;" vertex="1" parent="XG4IslfV-Pxhvq0_3yna-67">
          <mxGeometry y="70" width="220" height="26" as="geometry" />
        </mxCell>
        <mxCell id="XG4IslfV-Pxhvq0_3yna-70" value="DEFECT" style="text;strokeColor=none;fillColor=none;align=left;verticalAlign=top;spacingLeft=4;spacingRight=4;overflow=hidden;rotatable=0;points=[[0,0.5],[1,0.5]];portConstraint=eastwest;whiteSpace=wrap;html=1;" vertex="1" parent="XG4IslfV-Pxhvq0_3yna-67">
          <mxGeometry y="96" width="220" height="26" as="geometry" />
        </mxCell>
        <mxCell id="XG4IslfV-Pxhvq0_3yna-71" value="DEPEND" style="text;strokeColor=none;fillColor=none;align=left;verticalAlign=top;spacingLeft=4;spacingRight=4;overflow=hidden;rotatable=0;points=[[0,0.5],[1,0.5]];portConstraint=eastwest;whiteSpace=wrap;html=1;" vertex="1" parent="XG4IslfV-Pxhvq0_3yna-67">
          <mxGeometry y="122" width="220" height="26" as="geometry" />
        </mxCell>
        <mxCell id="XG4IslfV-Pxhvq0_3yna-75" value="" style="line;strokeWidth=1;fillColor=none;align=left;verticalAlign=middle;spacingTop=-1;spacingLeft=3;spacingRight=3;rotatable=0;labelPosition=right;points=[];portConstraint=eastwest;strokeColor=inherit;" vertex="1" parent="XG4IslfV-Pxhvq0_3yna-67">
          <mxGeometry y="148" width="220" height="8" as="geometry" />
        </mxCell>
        <mxCell id="XG4IslfV-Pxhvq0_3yna-77" style="edgeStyle=orthogonalEdgeStyle;rounded=0;orthogonalLoop=1;jettySize=auto;html=1;endArrow=none;endFill=0;" edge="1" parent="1" source="XG4IslfV-Pxhvq0_3yna-76" target="XG4IslfV-Pxhvq0_3yna-67">
          <mxGeometry relative="1" as="geometry" />
        </mxCell>
        <mxCell id="XG4IslfV-Pxhvq0_3yna-81" value="&lt;span style=&quot;font-weight: normal;&quot;&gt;&amp;lt;&amp;lt; entity &amp;gt;&amp;gt;&lt;br&gt;&lt;/span&gt;OrderStatus" style="swimlane;fontStyle=1;align=center;verticalAlign=top;childLayout=stackLayout;horizontal=1;startSize=44;horizontalStack=0;resizeParent=1;resizeParentMax=0;resizeLast=0;collapsible=1;marginBottom=0;whiteSpace=wrap;html=1;" vertex="1" parent="1">
          <mxGeometry x="1820" y="-210" width="220" height="130" as="geometry" />
        </mxCell>
        <mxCell id="XG4IslfV-Pxhvq0_3yna-82" value="order: Order" style="text;strokeColor=none;fillColor=none;align=left;verticalAlign=top;spacingLeft=4;spacingRight=4;overflow=hidden;rotatable=0;points=[[0,0.5],[1,0.5]];portConstraint=eastwest;whiteSpace=wrap;html=1;" vertex="1" parent="XG4IslfV-Pxhvq0_3yna-81">
          <mxGeometry y="44" width="220" height="26" as="geometry" />
        </mxCell>
        <mxCell id="XG4IslfV-Pxhvq0_3yna-85" value="user: uuid" style="text;strokeColor=none;fillColor=none;align=left;verticalAlign=top;spacingLeft=4;spacingRight=4;overflow=hidden;rotatable=0;points=[[0,0.5],[1,0.5]];portConstraint=eastwest;whiteSpace=wrap;html=1;" vertex="1" parent="XG4IslfV-Pxhvq0_3yna-81">
          <mxGeometry y="70" width="220" height="26" as="geometry" />
        </mxCell>
        <mxCell id="qYNk-IU5I3HGj0Sha-Av-1" value="signed: bool" style="text;strokeColor=none;fillColor=none;align=left;verticalAlign=top;spacingLeft=4;spacingRight=4;overflow=hidden;rotatable=0;points=[[0,0.5],[1,0.5]];portConstraint=eastwest;whiteSpace=wrap;html=1;" vertex="1" parent="XG4IslfV-Pxhvq0_3yna-81">
          <mxGeometry y="96" width="220" height="26" as="geometry" />
        </mxCell>
        <mxCell id="XG4IslfV-Pxhvq0_3yna-83" value="" style="line;strokeWidth=1;fillColor=none;align=left;verticalAlign=middle;spacingTop=-1;spacingLeft=3;spacingRight=3;rotatable=0;labelPosition=right;points=[];portConstraint=eastwest;strokeColor=inherit;" vertex="1" parent="XG4IslfV-Pxhvq0_3yna-81">
          <mxGeometry y="122" width="220" height="8" as="geometry" />
        </mxCell>
        <mxCell id="qYNk-IU5I3HGj0Sha-Av-2" value="&lt;span style=&quot;font-weight: normal;&quot;&gt;&amp;lt;&amp;lt; entity &amp;gt;&amp;gt;&lt;br&gt;&lt;/span&gt;OrderConfirmation" style="swimlane;fontStyle=1;align=center;verticalAlign=top;childLayout=stackLayout;horizontal=1;startSize=44;horizontalStack=0;resizeParent=1;resizeParentMax=0;resizeLast=0;collapsible=1;marginBottom=0;whiteSpace=wrap;html=1;" vertex="1" parent="1">
          <mxGeometry x="1820" y="-40" width="220" height="130" as="geometry" />
        </mxCell>
        <mxCell id="qYNk-IU5I3HGj0Sha-Av-3" value="order: Order" style="text;strokeColor=none;fillColor=none;align=left;verticalAlign=top;spacingLeft=4;spacingRight=4;overflow=hidden;rotatable=0;points=[[0,0.5],[1,0.5]];portConstraint=eastwest;whiteSpace=wrap;html=1;" vertex="1" parent="qYNk-IU5I3HGj0Sha-Av-2">
          <mxGeometry y="44" width="220" height="26" as="geometry" />
        </mxCell>
        <mxCell id="qYNk-IU5I3HGj0Sha-Av-4" value="user: uuid" style="text;strokeColor=none;fillColor=none;align=left;verticalAlign=top;spacingLeft=4;spacingRight=4;overflow=hidden;rotatable=0;points=[[0,0.5],[1,0.5]];portConstraint=eastwest;whiteSpace=wrap;html=1;" vertex="1" parent="qYNk-IU5I3HGj0Sha-Av-2">
          <mxGeometry y="70" width="220" height="26" as="geometry" />
        </mxCell>
        <mxCell id="qYNk-IU5I3HGj0Sha-Av-5" value="signed: bool" style="text;strokeColor=none;fillColor=none;align=left;verticalAlign=top;spacingLeft=4;spacingRight=4;overflow=hidden;rotatable=0;points=[[0,0.5],[1,0.5]];portConstraint=eastwest;whiteSpace=wrap;html=1;" vertex="1" parent="qYNk-IU5I3HGj0Sha-Av-2">
          <mxGeometry y="96" width="220" height="26" as="geometry" />
        </mxCell>
        <mxCell id="qYNk-IU5I3HGj0Sha-Av-6" value="" style="line;strokeWidth=1;fillColor=none;align=left;verticalAlign=middle;spacingTop=-1;spacingLeft=3;spacingRight=3;rotatable=0;labelPosition=right;points=[];portConstraint=eastwest;strokeColor=inherit;" vertex="1" parent="qYNk-IU5I3HGj0Sha-Av-2">
          <mxGeometry y="122" width="220" height="8" as="geometry" />
        </mxCell>
        <mxCell id="qYNk-IU5I3HGj0Sha-Av-7" style="edgeStyle=orthogonalEdgeStyle;rounded=0;orthogonalLoop=1;jettySize=auto;html=1;endArrow=block;endFill=0;dashed=1;" edge="1" parent="1" source="XG4IslfV-Pxhvq0_3yna-81" target="XG4IslfV-Pxhvq0_3yna-46">
          <mxGeometry relative="1" as="geometry">
            <mxPoint x="1940" y="-424" as="sourcePoint" />
            <mxPoint x="1940" y="-486" as="targetPoint" />
          </mxGeometry>
        </mxCell>
        <mxCell id="qYNk-IU5I3HGj0Sha-Av-8" style="edgeStyle=orthogonalEdgeStyle;rounded=0;orthogonalLoop=1;jettySize=auto;html=1;endArrow=block;endFill=0;dashed=1;" edge="1" parent="1" source="qYNk-IU5I3HGj0Sha-Av-2" target="XG4IslfV-Pxhvq0_3yna-81">
          <mxGeometry relative="1" as="geometry">
            <mxPoint x="1940" y="-200" as="sourcePoint" />
            <mxPoint x="1940" y="-242" as="targetPoint" />
          </mxGeometry>
        </mxCell>
      </root>
    </mxGraphModel>
  </diagram>
</mxfile>
